<?xml version="1.0" encoding="UTF-8"?>
<svg viewBox="0 0 1000 750" xmlns="http://www.w3.org/2000/svg">
 <g fill="#E53935">
  <path d="m275.24 119.75h452.05l25.294 342.34c-3.2202 58.414-4.767 60.308-28.545 86.285-29.241 25.15-64.669 38.443-96.92 47.93-80.906 23.798-170.28 23.637-278.14-28.791-35.152-16.001-50.822-86.19-48.447-115.02l-25.294-332.74z" stroke="#d3d3d3" stroke-width=".241"/>
  <path d="m0.8555 155.95l488.06-155.14 508.89 142.21-491.04 271.5-505.92-258.57v3.1e-5z"/>
  <path d="m185.54 482.17l26.825-1.0374c15.17 89.285 42.871 213.38 34.431 233.59-10.773 33.302-61.615 47.36-73.603 9.3751 0.69188-71.826 14.37-146.31 12.347-241.93z"/>
  <path d="m542 132.88c-17.662 13.983-54.654-12.52-60.621-1.3613-0.6236 1.1694-0.007813 7.7862 0.085754 9.7481 14.565 15.414 42.675 15.697 59.797 0.19186l0.7374-8.5786z"/>
  <path d="m500.08 132.24l15.071 6.466c-76.006 28.228-277.01 56.524-314.19 109.19-11.192 16.178-0.53799 89.473-4.103 134.07l-17.671 0.142c2.429-43.613-5.269-108.45 2.639-133.53 8.623-25.564 44.316-58.845 318.25-116.34z"/>
  <rect transform="matrix(15.436 -3.1667 2.5986 22.26 1.6928 -331.07)" x="5.4335" y="34.547" width="1.9868" height="3.2807"/>
  <path d="m538.29 122.08c55.815-26.775 113.78-49.501 182.29-47.994 3.0627-1.0545 8.2462 7.037-2.9462 7.4657-60.374 3.4847-116.91 27.345-174.55 45.328-7.2784 3.5576-9.2112-2.856-4.7873-4.7995z"/>
  <path d="m539.29 140.46c66.075 20.679 132.62 47.032 199.71 105.42 3.4565 1.5329 5.2784 13.612-5.9562 4.721-61.081-46.835-126.68-70.913-190.98-101.56-8.6432-2.6329-7.9375-10.399-2.7733-8.5881z"/>
  <path d="m500.85 125.31c-65.216-26.074-133.16-49.169-214.72-54.217-3.5967-1.1057-10.116 4.7693 3.1778 6.1233 71.656 8.2226 137.86 32.077 205.63 51.422 8.5013 3.452 11.08-1.4023 5.9038-3.3289z"/>
  <path d="m213.95 404.95a24.2 35.044 0 1 1 -48.4 0 24.2 35.044 0 1 1 48.4 0z"/>
  <path d="m542 132.88c-13.592 14.148-46.866 13.676-60.789 0 0-9.9742 13.608-18.06 30.394-18.06s30.394 8.0858 30.394 18.06z"/>
  <path d="m550.16 130.78c55.815-26.775 113.78-49.501 182.29-47.994 3.0626-1.0547 8.2461 7.037-2.9462 7.4657-60.374 3.4847-116.91 27.345-174.56 45.328-7.2782 3.5577-9.2111-2.856-4.7872-4.7995z"/>
  <path d="m529.87 147.56c66.792 21.159 134.04 48.026 201.75 107.1 3.4929 1.5604 5.3018 13.714-6.0396 4.7128-61.665-47.427-127.97-72.001-192.93-103.17-8.7371-2.6955-8.001-10.498-2.7814-8.6493z"/>
  <path d="m274.35 68.564c67.529 8.2334 135.94 20.906 207.24 58.898 3.5657 0.78832 6.2686 10.135-5.6062 4.476-64.451-29.577-131.75-40.563-198.23-56.911-8.8283-1.0199-8.6905-7.2609-3.3984-6.4633z"/>
 </g>
</svg>
