<?xml version='1.0' encoding='utf-8'?>
<svg xmlns="http://www.w3.org/2000/svg" version="1.1" width="600px" height="976px" viewBox="0 0 600 976"> <g id="layer1"> <g style="fill:rgb(254, 202, 12); fill-opacity:1.0; stroke-linejoin: miter"> <path d="M225.22221,211.89606C224.2712,211.87885,223.86893,211.9718,224.36674,212.13101C224.59111,212.18515,224.90349,212.21585,225.22258,212.22162C225.54167,212.22739,225.86748,212.20825,226.1186,212.16272C226.5718,212.02072,226.1732,211.91327,225.22221,211.89606 Z M239.11613,212.77798C239.22432,212.77994,239.34715,212.8046,239.47462,212.85507C239.87141,213.0625,240.21825,213.2691,240.21642,213.3692C240.21461,213.4693,239.86238,213.56305,239.46196,213.55582C239.06157,213.54855,238.71483,213.34204,238.72026,213.04169C238.72334,212.87164,238.88689,212.77383,239.11613,212.77798 Z M253.85484,217.82184C254.00508,217.82455,254.25166,218.02933,254.39638,218.33234C254.54198,218.58542,254.43736,218.83371,254.18712,218.82916C253.88676,218.82373,253.64104,218.56912,253.64558,218.31876C253.65102,218.01846,253.75475,217.82,253.85484,217.82184 Z M213.08702,302.96927C213.09682,302.9697,213.10591,302.9722,213.11436,302.9769L213.11137,302.97684Q212.94316,303.10562,212.774,303.23837L212.774,303.23837C212.84315,303.13425,212.92332,303.051,213.00859,303.00192C213.03706,302.97995,213.06218,302.96927,213.08403,302.9692 Z M151.66652,405.73584C151.86673,405.7395,152.09639,409.64905,152.21146,414.3576C152.32559,419.1164,152.60078,423.27716,152.84561,423.58197C153.53004,424.49548,153.79434,440.3224,153.09361,440.3097C152.79329,440.30426,151.17528,441.1762,149.5036,442.24744C147.70651,443.40924,146.952,443.8781,146.41151,443.86835C146.06825,443.86212,145.81131,443.66284,145.42845,443.32526C144.88695,442.81482,144.44824,442.15594,144.45459,441.8056C144.46002,441.50537,144.17055,440.89917,143.82652,440.54254C143.4825,440.18573,143.04474,439.47687,142.85266,439.02277C142.71155,438.51953,141.53023,437.3966,140.29518,436.47302C138.46678,435.138,138.07722,434.53027,138.09897,433.32904C138.11436,432.4781,137.59457,430.76624,136.91557,429.55225C136.23567,428.3885,135.70412,427.32727,135.70593,427.22717C135.70683,427.1772,136.76155,426.99603,138.11664,426.8203C139.42162,426.64355,140.98323,426.12103,141.54291,425.6305C143.06624,424.45642,147.94063,415.18164,147.97054,413.52985C147.9959,412.12836,151.01582,405.72412,151.66652,405.73584 Z M247.36018,743.0216C247.2488,743.0196,247.15862,743.2967,247.19023,743.7317C247.1841,744.071,247.23775,744.2593,247.31667,744.26074C247.3658,744.2616,247.42473,744.19006,247.48512,744.0374C247.64165,743.6898,247.59972,743.2384,247.45229,743.0855C247.42134,743.04266,247.39003,743.02216,247.36018,743.0216 Z M240.93019,211.95462C239.9995,211.93777,238.81343,212.17966,237.67543,212.67227C235.40404,213.68265,234.8308,214.92404,236.58083,215.05585C237.0814,215.06491,237.17876,215.21674,236.82567,215.36066C236.77315,215.37463,236.71074,215.38062,236.64058,215.37936C236.24043,215.37213,235.58867,215.12823,235.08379,214.77829C234.49135,214.31696,233.39647,213.94675,232.69576,213.93408C231.69469,213.91595,231.59639,213.81406,232.20515,213.37436C232.53743,213.14182,232.61882,213.02902,232.38625,213.02432L232.38304,213.02426C232.22423,213.02173,231.92235,213.06836,231.458,213.16052C230.65349,213.34628,229.8973,213.63297,229.79265,213.88153C229.72157,214.05032,229.53615,214.14767,229.29985,214.1434C229.18837,214.14139,229.06557,214.11673,228.93813,214.06631C228.83052,214.01785,228.71281,213.99323,228.59554,213.99109C228.33406,213.98636,228.07451,214.0936,227.93254,214.2984C227.72722,214.64847,227.45692,214.8118,227.2205,214.80753C226.9215,214.80212,226.67665,214.52863,226.68575,214.02557C226.69298,213.62509,226.54045,213.44434,226.06584,213.43576C225.82854,213.43146,225.51079,213.47018,225.09221,213.54602C224.1876,213.72998,223.38043,214.06586,223.27579,214.31424C223.17117,214.56271,222.46677,214.75021,221.76509,214.7877C221.0143,214.7741,220.71126,214.91869,221.05891,215.0753C222.10281,215.49478,221.6906,216.1381,220.18538,216.31126C219.8936,216.34758,219.65587,216.36565,219.4691,216.36226C218.98128,216.35344,218.84093,216.19829,218.99226,215.839C219.10686,215.57274,219.02269,215.45442,218.80833,215.45055C218.1428,215.43849,216.22267,216.52968,215.10286,217.7213C214.43767,218.51027,213.57588,219.09563,213.22545,219.08928C211.37349,219.05577,207.96672,224.70204,207.90785,227.95549C207.88792,229.05672,207.66869,230.1042,207.36565,230.24886C207.11266,230.39449,206.85152,230.99062,206.84245,231.4911C206.8325,232.04176,206.37029,232.68425,205.81425,232.97456C205.25822,233.26506,204.79506,233.95757,204.786,234.45815C204.77602,235.00877,204.56767,235.45546,204.26732,235.45003C203.86693,235.44276,203.34102,236.83534,202.32478,240.42195C202.21742,240.82054,201.91917,243.46873,201.71828,246.26909C201.44466,250.31969,201.52122,251.62294,202.0555,252.5338C202.44414,253.19176,202.91661,254.75249,203.04228,256.10672C203.1444,256.861,203.2964,257.63297,203.46324,258.21884L203.46037,258.21878Q202.56337,263.01743,202.57246,263.2742Q202.25352,265.4199,202.54158,266.71225Q205.2151,275.11246,209.22917,275.1851Q209.48051,275.18967,209.73717,275.16153Q209.73732,275.16684,209.73747,275.1721L209.73454,275.17203C209.65508,275.28415,209.56047,275.39352,209.45067,275.49942C208.99205,275.94174,208.98662,276.24203,209.42894,276.70065C209.5974,276.87527,209.72624,277.07913,209.8173,277.29483L209.81435,277.29477Q209.84688,278.0477,209.88472,278.72794L209.88176,278.72794C209.78297,278.99112,209.61455,279.19992,209.38182,279.30344C209.17671,279.38705,209.19185,279.44077,209.39815,279.4445C209.51402,279.44656,209.6902,279.4329,209.92152,279.39987L209.92448,279.39993Q210.03786,281.20065,210.19276,282.43314L210.71596,285.73636Q211.33583,290.70554,211.52809,291.72928Q211.92076,294.10135,212.37636,295.7017Q213.19084,298.8085,215.07036,300.9277L215.06734,300.92764C214.75859,301.10294,214.19728,301.2358,213.28783,301.4047C212.4333,301.5895,211.06917,302.26578,210.25658,302.9019C209.44304,303.58823,206.7531,305.59238,204.21779,307.34903C203.61238,307.78928,203.02785,308.22092,202.48848,308.6257L202.48558,308.6257Q154.31638,322.2074,147.95781,324.23755Q142.39835,325.83752,140.60172,328.03235Q138.78397,329.97174,136.9238,335.1881L119.340836,384.80786L119.33876,384.8078Q106.14395,408.02777,101.9075,418.4693Q96.17453,431.89197,97.731445,439.20825Q98.693726,445.56866,106.00423,453.9848Q116.04468,465.65717,141.6116,491.6244L141.60931,491.6244L133.66112,541.1573Q138.81487,544.5945,145.23457,545.7674Q151.20436,546.91895,161.84982,547.5941L161.84729,547.59406Q159.63957,555.93677,159.01295,567.62646Q158.22041,581.58765,159.37962,601.19836Q159.35452,606.3674,165.08606,668.7079Q166.03069,680.91516,166.20595,692.1608Q166.39915,704.5221,165.61487,716.776Q165.38431,722.3919,162.64853,749.0206L162.0378,758.09125Q161.57718,768.31946,162.3968,779.3988Q164.22443,802.7366,169.29404,822.03156Q172.63776,834.5707,176.22308,837.62946L176.22037,837.6294Q175.77621,841.60675,174.85587,848.89484L174.51521,852.9934Q174.20688,858.9611,175.51169,862.7914Q177.91277,871.5635,193.48576,873.6032Q196.91154,873.90344,199.84044,873.9564Q213.1504,874.19745,216.19978,869.3336Q220.27876,864.29297,213.59114,843.73517Q211.34993,837.04126,209.42561,833.1061L209.42256,833.106C209.45546,833.06384,209.47408,833.019,209.47487,832.97394C209.47765,832.8204,209.30968,832.5339,209.03831,832.17993L209.0353,832.1799Q216.20903,815.04034,216.78242,802.20135Q216.92686,797.7328,216.34206,794.22473L212.14891,774.2558Q211.02846,767.8169,210.64919,760.97815Q209.79872,746.4678,212.47935,726.73975Q214.6143,710.5533,219.6377,685.2493Q220.80164,678.72845,230.57802,633.1585L230.58125,633.15857Q231.96367,639.5119,233.64604,646.2186L244.11214,686.19165Q246.68303,697.18036,247.87904,707.60046Q248.83504,716.16345,248.97777,724.94836L248.97435,724.9483C248.59401,725.4666,248.63124,725.7803,248.95973,726.18933C248.97215,726.20374,248.98482,726.218,248.99773,726.232L248.99431,726.23193Q249.04707,731.80664,248.77357,737.47046Q248.76518,737.6608,248.75636,737.8532L248.75636,737.8532L248.74867,737.8518L248.7416,738.2427L248.73817,738.2426Q248.44151,744.47614,247.701,752.8489Q243.46382,794.71643,243.4618,797.4659Q243.4571,797.5324,243.45241,797.5988L243.44902,797.59875Q241.24355,815.0347,240.90947,821.99066Q240.67488,825.8466,240.72029,829.34045L241.15074,842.0212Q241.30641,843.2028,239.61101,851.7353L239.4058,854.42377Q239.42982,857.57416,240.8524,859.35956Q242.64015,861.7924,248.13124,863.1066Q250.1122,863.75006,258.32858,864.73065L258.32504,864.7306C258.394,864.77435,258.44016,864.8152,258.4667,864.8538C258.71066,865.2087,264.3796,867.36414,266.1251,867.7461C266.62387,867.85535,267.71414,868.4759,268.60425,869.0929C271.00348,870.9519,278.53223,873.1144,285.46692,874.2164L285.46307,874.2163Q286.18292,874.8906,286.34247,874.9025Q287.59302,875.6887,289.35205,875.8368Q301.10553,875.9323,305.3853,873.8142Q312.26324,870.8753,312.84235,866.3114Q313.0263,863.9697,310.81635,861.32874Q310.77594,860.8115,301.51923,852.31805Q296.07318,845.41,283.42322,831.7616L283.4195,831.76154Q283.4596,831.69037,283.4997,831.61896L283.4959,831.6189C284.5724,831.2696,285.77478,829.9031,285.3969,829.2912C285.3507,829.1944,285.1667,829.1003,284.8838,829.016L284.88,829.0159Q289.8888,819.032,293.4986,803.7281Q299.83234,777.5527,303.2962,725.0358Q306.28687,678.2222,304.2403,635.01935Q303.18085,607.96625,297.83633,566.6409L297.83243,566.64087Q304.3534,565.6491,314.64478,553.565L289.39584,454.56454L289.39963,454.5646Q291.52005,456.4788,294.33163,458.6263Q301.5205,463.9962,305.36084,465.5233Q307.14984,466.30832,309.42407,466.34952Q311.07306,466.37936,312.97717,466.0181Q315.98932,465.5073,321.70923,464.1589L321.70514,464.15878C322.79242,464.0668,323.48737,463.96835,323.60455,463.8741C323.75977,463.74594,324.1247,463.60257,324.6076,463.46298L324.60352,463.46292Q325.15527,463.32913,325.69806,463.19675L325.6939,463.1967C326.0725,463.1169,326.474,463.0438,326.8753,462.9821C328.38226,462.7089,331.0442,462.25638,332.85333,461.88858C334.66257,461.52084,337.4764,460.97092,339.1335,460.70053C340.79166,460.37997,343.25418,459.8738,344.61295,459.49783C345.92148,459.121,347.4786,458.84872,348.02927,458.85867C348.9802,458.8759,351.5466,458.17136,355.9784,456.74948C356.93573,456.4163,358.5475,455.8948,359.50385,455.61166C360.04132,455.42453,361.0708,455.0886,362.2356,454.72128L362.2401,454.72134L362.00934,454.9128Q374.16846,452.22946,379.52655,450.29947Q385.6969,448.15305,388.89832,445.49173Q392.94696,442.16885,393.70325,436.31094L393.6985,436.31088Q394.0299,436.14694,394.318,435.993Q399.29486,433.04846,400.53894,432.42206Q402.0229,431.66864,402.84485,431.5191L402.87518,431.46497L402.88013,431.46503Q407.95294,432.729,409.73242,433.0354Q410.63098,433.19037,411.46887,433.20557Q413.03986,433.23395,414.39734,432.7708Q418.4005,431.6541,425.23712,423.51025Q428.9704,418.96124,430.49524,416.01965Q431.73206,413.67712,431.0631,411.95538Q430.61945,411.09277,430.07648,410.25708L430.0713,410.25702C430.07288,410.0304,430.0611,409.76312,430.03583,409.4723C429.99615,409.01666,429.92133,408.6062,429.83215,408.3015L429.82697,408.3014L535.1104,349.1772Q537.156,347.6353,536.6028,345.33182Q535.8324,342.96945,533.3422,342.7534L533.3123,342.7526Q532.2817,342.75583,531.53143,343.19754L423.93738,403.61407L423.93738,403.61407Q423.88477,403.5838,423.83154,403.55353Q422.80017,402.9499,421.40375,402.45294L421.39862,402.45288Q420.14417,401.91797,418.8864,401.7129L418.88135,401.71277Q417.64282,401.4131,416.20923,401.17035L416.19318,401.1676Q414.58325,400.8911,413.18585,400.86578Q412.37097,400.85107,411.62842,400.9217Q407.86902,401.4192,406.7182,402.0703Q404.82263,403.0157,403.44727,404.33594Q402.24707,405.49744,400.758,407.0952Q397.98126,410.3648,396.43127,411.9007Q394.80194,413.5658,393.6635,414.26074Q392.29297,415.12885,390.54993,415.74854L386.2881,416.913L386.2881,416.913L385.85895,415.66998Q385.73883,415.34418,385.64355,415.16083Q385.0672,413.99097,384.0548,413.6776Q381.9577,412.98865,380.04187,412.89148L380.03015,412.89117Q380.04688,412.83875,379.85773,412.83533Q378.76184,412.8155,370.7553,414.4416Q370.7401,414.4693,370.72498,414.4969L370.7204,414.49683Q366.8487,414.78143,361.99792,415.54193Q346.25284,417.91293,318.17444,424.99155L318.17444,424.99155Q317.7954,421.9943,317.42456,419.13644L317.42047,419.13638C317.62158,417.27884,317.50275,416.45633,316.87134,414.88596L316.8673,414.8859Q313.1186,386.5906,310.23706,373.0254Q307.04565,357.3404,303.14014,347.91656L303.13623,347.9165C303.06897,347.588,302.87244,347.09564,302.5954,346.5816L302.4571,346.3199L302.4532,346.31982Q301.80426,344.86792,301.1363,343.5835Q296.49472,334.64575,289.31003,330.55353Q286.35336,328.87836,283.02304,327.99194Q281.68686,327.47998,275.94617,326.74887L275.94263,326.7488C273.031,324.67734,271.31555,323.83444,269.6604,323.6945L269.65686,323.69443Q269.29242,323.1796,268.9143,322.65738Q264.6471,316.8272,259.0451,310.86505L259.0417,310.865Q260.12793,304.4206,261.22223,300.94623Q261.2948,300.62738,261.45428,300.1681L261.4508,300.16803C261.52234,300.10876,261.60095,300.0761,261.67902,300.0775C261.9248,300.08197,261.9408,299.81403,261.75244,299.38385L261.74896,299.3838Q262.60883,297.22742,264.72766,293.0382Q265.2262,291.87708,265.59912,290.49194Q266.3797,287.62183,266.9082,282.12756Q267.17633,279.11444,267.40015,276.3824L267.3966,276.38232L269.54553,272.36597Q269.83893,271.81042,270.01526,271.4217Q270.6032,270.149,270.77686,268.8731Q271.11877,266.54993,270.28967,262.1031Q269.63763,258.7057,268.807,256.46033L268.81055,256.4604C268.9234,256.47968,269.0332,256.4901,269.1383,256.492C269.9276,256.5063,270.45245,256.03912,270.00146,255.21556C269.7602,254.71056,269.7201,254.15892,269.8739,253.96144C270.07782,253.76491,270.29523,252.81758,270.3142,251.76656C270.38232,250.76625,270.6206,248.66771,270.84894,247.11977C271.18817,244.97285,271.1062,243.96996,270.52637,242.80785C270.14136,241.94975,269.81097,240.84221,269.87006,240.34248C269.94006,239.24236,266.41278,229.41493,265.86676,229.15462C265.6183,229.05,265.4735,228.747,265.47717,228.5468C265.4817,228.29652,264.40588,226.8751,263.03064,225.39818C261.70544,223.92218,260.58142,222.39987,260.58685,222.0994C260.5932,221.74902,260.3985,221.44513,260.14825,221.44058C259.8979,221.43607,259.5594,220.77896,259.3736,219.97458C259.00763,218.0653,256.35272,215.3635,254.9012,215.33722C254.25053,215.32544,253.15388,215.05533,252.35847,214.74045C251.88612,214.5567,251.52483,214.46255,251.26833,214.45792C251.0118,214.45328,250.86003,214.53815,250.80684,214.71237C250.69273,215.06064,250.23354,215.2431,249.83559,215.2359C249.49419,215.22974,249.19789,215.08392,249.20332,214.78348C249.21187,214.31168,248.03893,213.9093,247.14574,213.89313C246.7123,213.88528,246.34477,213.96841,246.2101,214.17865C246.09834,214.35043,245.96928,214.43704,245.8148,214.43427C245.6133,214.4306,245.36855,214.27481,245.06248,213.95755C244.67024,213.49976,243.97581,213.13678,243.57536,213.12955C243.12492,213.1214,242.7281,212.91394,242.63164,212.71185C242.46965,212.2208,241.81544,211.97064,240.93019,211.95462 Z"/> </g> </g> </svg>